<svg class="icon" height="512" viewBox="0 0 1024 1024" version="1.1" xmlns="http://www.w3.org/2000/svg"><path d="M511.936 350.016a162.016 162.016 0 0 0 0 324.064c89.408 0 161.44-72.672 161.44-162.048 0-89.472-72-162.016-161.44-162.016z m324.704 255.04l-29.184 70.304 58.944 115.744-72.192 72.192-118.432-55.936-70.304 28.864-35.68 109.248-4.576 14.496h-102.016l-44.16-123.328-70.304-28.992-115.904 58.688-72.16-72.128 55.872-118.496-28.96-70.24-123.52-40.32v-101.984l123.392-44.224 28.96-70.176-51.904-102.464-6.848-13.44 72.064-72.064L348.32 216.64l70.208-29.024 35.648-109.184 4.608-14.464h102.016l44.192 123.456 70.112 29.024 116.064-58.816 72.128 72.064-55.872 118.4 28.864 70.336 123.744 40.256v101.952l-123.36 44.384z" fill="white" /></svg>